<svg width="24" height="24" viewBox="0 0 24 24" fill="none" xmlns="http://www.w3.org/2000/svg">
<path d="M3 12C3 7.02944 7.02944 3 12 3V3C16.9706 3 21 7.02944 21 12V12C21 16.9706 16.9706 21 12 21V21C7.02944 21 3 16.9706 3 12V12Z" fill="#7E869E" fill-opacity="0.25"/>
<ellipse cx="12" cy="10" rx="4" ry="4" fill="#222222"/>
<path fill-rule="evenodd" clip-rule="evenodd" d="M18.4009 18.2168C16.7622 19.9318 14.4524 21 11.8932 21C9.23842 21 6.85214 19.8506 5.20483 18.0223C6.15841 16.4509 8.72816 15.3253 11.7486 15.3253C14.8923 15.3253 17.5478 16.5447 18.4009 18.2168Z" fill="#222222"/>
</svg>
